<mxfile host="app.diagrams.net" agent="Mozilla/5.0 (Windows NT 10.0; Win64; x64) AppleWebKit/537.36 (KHTML, like Gecko) Chrome/139.0.0.0 Safari/537.36" version="28.1.2">
  <diagram name="PÃ¡gina-1" id="8GAauisjcuB8rHn60O9q">
    <mxGraphModel dx="1155" dy="676" grid="1" gridSize="10" guides="1" tooltips="1" connect="1" arrows="1" fold="1" page="1" pageScale="1" pageWidth="827" pageHeight="1169" math="0" shadow="0">
      <root>
        <mxCell id="0" />
        <mxCell id="1" parent="0" />
        <mxCell id="yhsSbdnPkUWRsLbV-Y3A-1" value="fornecedor" style="rounded=0;whiteSpace=wrap;html=1;" vertex="1" parent="1">
          <mxGeometry x="110" y="110" width="120" height="60" as="geometry" />
        </mxCell>
        <mxCell id="yhsSbdnPkUWRsLbV-Y3A-2" value="produtos" style="rounded=0;whiteSpace=wrap;html=1;" vertex="1" parent="1">
          <mxGeometry x="600" y="300" width="120" height="60" as="geometry" />
        </mxCell>
        <mxCell id="yhsSbdnPkUWRsLbV-Y3A-3" value="encomendas" style="rounded=0;whiteSpace=wrap;html=1;" vertex="1" parent="1">
          <mxGeometry x="600" y="105" width="120" height="60" as="geometry" />
        </mxCell>
        <mxCell id="yhsSbdnPkUWRsLbV-Y3A-4" value="id_fornecedor" style="ellipse;whiteSpace=wrap;html=1;fillColor=#f8cecc;strokeColor=#b85450;" vertex="1" parent="1">
          <mxGeometry x="20" y="50" width="80" height="40" as="geometry" />
        </mxCell>
        <mxCell id="yhsSbdnPkUWRsLbV-Y3A-5" value="Nome" style="ellipse;whiteSpace=wrap;html=1;" vertex="1" parent="1">
          <mxGeometry x="90" y="10" width="90" height="40" as="geometry" />
        </mxCell>
        <mxCell id="yhsSbdnPkUWRsLbV-Y3A-6" value="id_cidade" style="ellipse;whiteSpace=wrap;html=1;fillColor=#d5e8d4;strokeColor=#82b366;" vertex="1" parent="1">
          <mxGeometry x="200" y="10" width="80" height="40" as="geometry" />
        </mxCell>
        <mxCell id="yhsSbdnPkUWRsLbV-Y3A-8" value="" style="endArrow=none;html=1;rounded=0;entryX=0.638;entryY=0.925;entryDx=0;entryDy=0;entryPerimeter=0;exitX=0;exitY=0.25;exitDx=0;exitDy=0;strokeColor=light-dark(#dc0404, #ededed);" edge="1" parent="1" source="yhsSbdnPkUWRsLbV-Y3A-1" target="yhsSbdnPkUWRsLbV-Y3A-4">
          <mxGeometry width="50" height="50" relative="1" as="geometry">
            <mxPoint x="50" y="125" as="sourcePoint" />
            <mxPoint x="100" y="75" as="targetPoint" />
          </mxGeometry>
        </mxCell>
        <mxCell id="yhsSbdnPkUWRsLbV-Y3A-9" value="" style="endArrow=none;html=1;rounded=0;exitX=0.25;exitY=0;exitDx=0;exitDy=0;" edge="1" parent="1" source="yhsSbdnPkUWRsLbV-Y3A-1">
          <mxGeometry width="50" height="50" relative="1" as="geometry">
            <mxPoint x="130" y="110" as="sourcePoint" />
            <mxPoint x="139" y="50" as="targetPoint" />
          </mxGeometry>
        </mxCell>
        <mxCell id="yhsSbdnPkUWRsLbV-Y3A-10" value="" style="endArrow=none;html=1;rounded=0;entryX=0.238;entryY=0.95;entryDx=0;entryDy=0;entryPerimeter=0;exitX=0.5;exitY=0;exitDx=0;exitDy=0;fillColor=#d5e8d4;strokeColor=#82b366;" edge="1" parent="1" source="yhsSbdnPkUWRsLbV-Y3A-1" target="yhsSbdnPkUWRsLbV-Y3A-6">
          <mxGeometry width="50" height="50" relative="1" as="geometry">
            <mxPoint x="170" y="120" as="sourcePoint" />
            <mxPoint x="220" y="70" as="targetPoint" />
            <Array as="points" />
          </mxGeometry>
        </mxCell>
        <mxCell id="yhsSbdnPkUWRsLbV-Y3A-12" value="ID_Encomenda" style="ellipse;whiteSpace=wrap;html=1;fillColor=#f8cecc;strokeColor=#b85450;" vertex="1" parent="1">
          <mxGeometry x="500" y="25" width="100" height="40" as="geometry" />
        </mxCell>
        <mxCell id="yhsSbdnPkUWRsLbV-Y3A-13" value="ID_Produto" style="ellipse;whiteSpace=wrap;html=1;fillColor=#f8cecc;strokeColor=#b85450;" vertex="1" parent="1">
          <mxGeometry x="760" y="270" width="80" height="40" as="geometry" />
        </mxCell>
        <mxCell id="yhsSbdnPkUWRsLbV-Y3A-14" value="Data" style="ellipse;whiteSpace=wrap;html=1;" vertex="1" parent="1">
          <mxGeometry x="660" y="25" width="80" height="40" as="geometry" />
        </mxCell>
        <mxCell id="yhsSbdnPkUWRsLbV-Y3A-16" value="Produto" style="ellipse;whiteSpace=wrap;html=1;" vertex="1" parent="1">
          <mxGeometry x="780" y="320" width="80" height="40" as="geometry" />
        </mxCell>
        <mxCell id="yhsSbdnPkUWRsLbV-Y3A-18" value="" style="endArrow=none;html=1;rounded=0;entryX=1;entryY=0.333;entryDx=0;entryDy=0;entryPerimeter=0;exitX=0;exitY=1;exitDx=0;exitDy=0;strokeColor=#b85450;fillColor=#f8cecc;" edge="1" parent="1" source="yhsSbdnPkUWRsLbV-Y3A-13" target="yhsSbdnPkUWRsLbV-Y3A-2">
          <mxGeometry width="50" height="50" relative="1" as="geometry">
            <mxPoint x="770" y="300" as="sourcePoint" />
            <mxPoint x="120" y="300" as="targetPoint" />
          </mxGeometry>
        </mxCell>
        <mxCell id="yhsSbdnPkUWRsLbV-Y3A-19" value="" style="endArrow=none;html=1;rounded=0;exitX=0;exitY=0.5;exitDx=0;exitDy=0;entryX=1.017;entryY=0.633;entryDx=0;entryDy=0;entryPerimeter=0;" edge="1" parent="1" source="yhsSbdnPkUWRsLbV-Y3A-16" target="yhsSbdnPkUWRsLbV-Y3A-2">
          <mxGeometry width="50" height="50" relative="1" as="geometry">
            <mxPoint x="140" y="350" as="sourcePoint" />
            <mxPoint x="649" y="363" as="targetPoint" />
          </mxGeometry>
        </mxCell>
        <mxCell id="yhsSbdnPkUWRsLbV-Y3A-21" value="" style="endArrow=none;html=1;rounded=0;entryX=0.5;entryY=1;entryDx=0;entryDy=0;exitX=0.5;exitY=0;exitDx=0;exitDy=0;" edge="1" parent="1" source="yhsSbdnPkUWRsLbV-Y3A-3" target="yhsSbdnPkUWRsLbV-Y3A-14">
          <mxGeometry width="50" height="50" relative="1" as="geometry">
            <mxPoint x="520" y="130" as="sourcePoint" />
            <mxPoint x="570" y="80" as="targetPoint" />
          </mxGeometry>
        </mxCell>
        <mxCell id="yhsSbdnPkUWRsLbV-Y3A-22" value="" style="endArrow=none;html=1;rounded=0;entryX=0.5;entryY=1;entryDx=0;entryDy=0;fillColor=#f8cecc;strokeColor=#b85450;" edge="1" parent="1" source="yhsSbdnPkUWRsLbV-Y3A-3" target="yhsSbdnPkUWRsLbV-Y3A-12">
          <mxGeometry width="50" height="50" relative="1" as="geometry">
            <mxPoint x="390" y="290" as="sourcePoint" />
            <mxPoint x="440" y="240" as="targetPoint" />
          </mxGeometry>
        </mxCell>
        <mxCell id="yhsSbdnPkUWRsLbV-Y3A-23" value="forn/encom" style="rhombus;whiteSpace=wrap;html=1;" vertex="1" parent="1">
          <mxGeometry x="356.5" y="115" width="114" height="50" as="geometry" />
        </mxCell>
        <mxCell id="yhsSbdnPkUWRsLbV-Y3A-24" value="" style="endArrow=none;html=1;rounded=0;entryX=1;entryY=0.5;entryDx=0;entryDy=0;exitX=0;exitY=0.5;exitDx=0;exitDy=0;" edge="1" parent="1" source="yhsSbdnPkUWRsLbV-Y3A-23" target="yhsSbdnPkUWRsLbV-Y3A-1">
          <mxGeometry width="50" height="50" relative="1" as="geometry">
            <mxPoint x="260" y="180" as="sourcePoint" />
            <mxPoint x="310" y="130" as="targetPoint" />
          </mxGeometry>
        </mxCell>
        <mxCell id="yhsSbdnPkUWRsLbV-Y3A-25" value="" style="endArrow=none;html=1;rounded=0;entryX=1;entryY=0.5;entryDx=0;entryDy=0;" edge="1" parent="1" target="yhsSbdnPkUWRsLbV-Y3A-23">
          <mxGeometry width="50" height="50" relative="1" as="geometry">
            <mxPoint x="600" y="140" as="sourcePoint" />
            <mxPoint x="530" y="140" as="targetPoint" />
          </mxGeometry>
        </mxCell>
        <mxCell id="yhsSbdnPkUWRsLbV-Y3A-27" value="encom/produ" style="rhombus;whiteSpace=wrap;html=1;" vertex="1" parent="1">
          <mxGeometry x="607.5" y="210" width="105" height="40" as="geometry" />
        </mxCell>
        <mxCell id="yhsSbdnPkUWRsLbV-Y3A-28" value="" style="endArrow=none;html=1;rounded=0;entryX=0.5;entryY=1;entryDx=0;entryDy=0;exitX=0.5;exitY=0;exitDx=0;exitDy=0;" edge="1" parent="1" source="yhsSbdnPkUWRsLbV-Y3A-27" target="yhsSbdnPkUWRsLbV-Y3A-3">
          <mxGeometry width="50" height="50" relative="1" as="geometry">
            <mxPoint x="440" y="290" as="sourcePoint" />
            <mxPoint x="490" y="240" as="targetPoint" />
          </mxGeometry>
        </mxCell>
        <mxCell id="yhsSbdnPkUWRsLbV-Y3A-30" value="" style="endArrow=none;html=1;rounded=0;entryX=0.5;entryY=1;entryDx=0;entryDy=0;exitX=0.5;exitY=0;exitDx=0;exitDy=0;" edge="1" parent="1" source="yhsSbdnPkUWRsLbV-Y3A-2" target="yhsSbdnPkUWRsLbV-Y3A-27">
          <mxGeometry width="50" height="50" relative="1" as="geometry">
            <mxPoint x="440" y="290" as="sourcePoint" />
            <mxPoint x="490" y="240" as="targetPoint" />
          </mxGeometry>
        </mxCell>
        <mxCell id="yhsSbdnPkUWRsLbV-Y3A-32" value="cidade" style="rounded=0;whiteSpace=wrap;html=1;" vertex="1" parent="1">
          <mxGeometry x="110" y="330" width="120" height="60" as="geometry" />
        </mxCell>
        <mxCell id="yhsSbdnPkUWRsLbV-Y3A-33" value="ID_cidade" style="ellipse;whiteSpace=wrap;html=1;fillColor=#f8cecc;strokeColor=#b85450;" vertex="1" parent="1">
          <mxGeometry x="60" y="422" width="80" height="40" as="geometry" />
        </mxCell>
        <mxCell id="yhsSbdnPkUWRsLbV-Y3A-35" value="" style="endArrow=none;html=1;rounded=0;entryX=0.158;entryY=1;entryDx=0;entryDy=0;entryPerimeter=0;exitX=0.5;exitY=0;exitDx=0;exitDy=0;fillColor=#f8cecc;strokeColor=#b85450;" edge="1" parent="1" source="yhsSbdnPkUWRsLbV-Y3A-33" target="yhsSbdnPkUWRsLbV-Y3A-32">
          <mxGeometry width="50" height="50" relative="1" as="geometry">
            <mxPoint x="-390" y="382" as="sourcePoint" />
            <mxPoint x="134" y="380" as="targetPoint" />
          </mxGeometry>
        </mxCell>
        <mxCell id="yhsSbdnPkUWRsLbV-Y3A-37" style="edgeStyle=orthogonalEdgeStyle;rounded=0;orthogonalLoop=1;jettySize=auto;html=1;exitX=0.5;exitY=1;exitDx=0;exitDy=0;" edge="1" parent="1">
          <mxGeometry relative="1" as="geometry">
            <mxPoint x="190" y="462" as="sourcePoint" />
            <mxPoint x="190" y="462" as="targetPoint" />
          </mxGeometry>
        </mxCell>
        <mxCell id="yhsSbdnPkUWRsLbV-Y3A-38" value="Cidade" style="ellipse;whiteSpace=wrap;html=1;" vertex="1" parent="1">
          <mxGeometry x="155" y="420" width="80" height="40" as="geometry" />
        </mxCell>
        <mxCell id="yhsSbdnPkUWRsLbV-Y3A-39" value="" style="endArrow=none;html=1;rounded=0;entryX=0.833;entryY=1.017;entryDx=0;entryDy=0;entryPerimeter=0;" edge="1" parent="1" source="yhsSbdnPkUWRsLbV-Y3A-38" target="yhsSbdnPkUWRsLbV-Y3A-32">
          <mxGeometry width="50" height="50" relative="1" as="geometry">
            <mxPoint x="210" y="430" as="sourcePoint" />
            <mxPoint x="260" y="380" as="targetPoint" />
          </mxGeometry>
        </mxCell>
        <mxCell id="yhsSbdnPkUWRsLbV-Y3A-40" value="cidade/forne" style="rhombus;whiteSpace=wrap;html=1;" vertex="1" parent="1">
          <mxGeometry x="105" y="230" width="130" height="50" as="geometry" />
        </mxCell>
        <mxCell id="yhsSbdnPkUWRsLbV-Y3A-41" value="" style="endArrow=none;html=1;rounded=0;entryX=0.5;entryY=1;entryDx=0;entryDy=0;exitX=0.5;exitY=0;exitDx=0;exitDy=0;" edge="1" parent="1" source="yhsSbdnPkUWRsLbV-Y3A-40" target="yhsSbdnPkUWRsLbV-Y3A-1">
          <mxGeometry width="50" height="50" relative="1" as="geometry">
            <mxPoint x="430" y="290" as="sourcePoint" />
            <mxPoint x="480" y="240" as="targetPoint" />
          </mxGeometry>
        </mxCell>
        <mxCell id="yhsSbdnPkUWRsLbV-Y3A-44" value="" style="endArrow=none;html=1;rounded=0;entryX=0.5;entryY=1;entryDx=0;entryDy=0;" edge="1" parent="1" source="yhsSbdnPkUWRsLbV-Y3A-32" target="yhsSbdnPkUWRsLbV-Y3A-40">
          <mxGeometry width="50" height="50" relative="1" as="geometry">
            <mxPoint x="430" y="290" as="sourcePoint" />
            <mxPoint x="480" y="240" as="targetPoint" />
          </mxGeometry>
        </mxCell>
        <mxCell id="yhsSbdnPkUWRsLbV-Y3A-52" value="prod/encom" style="rhombus;whiteSpace=wrap;html=1;" vertex="1" parent="1">
          <mxGeometry x="600" y="410" width="120" height="50" as="geometry" />
        </mxCell>
        <mxCell id="yhsSbdnPkUWRsLbV-Y3A-53" value="produ_encomendados" style="rounded=0;whiteSpace=wrap;html=1;" vertex="1" parent="1">
          <mxGeometry x="591.25" y="525" width="137.5" height="60" as="geometry" />
        </mxCell>
        <mxCell id="yhsSbdnPkUWRsLbV-Y3A-54" value="" style="endArrow=none;html=1;rounded=0;entryX=0.5;entryY=1;entryDx=0;entryDy=0;exitX=0.5;exitY=0;exitDx=0;exitDy=0;" edge="1" parent="1" source="yhsSbdnPkUWRsLbV-Y3A-52" target="yhsSbdnPkUWRsLbV-Y3A-2">
          <mxGeometry width="50" height="50" relative="1" as="geometry">
            <mxPoint x="400" y="440" as="sourcePoint" />
            <mxPoint x="450" y="390" as="targetPoint" />
          </mxGeometry>
        </mxCell>
        <mxCell id="yhsSbdnPkUWRsLbV-Y3A-55" value="" style="endArrow=none;html=1;rounded=0;entryX=0.5;entryY=1;entryDx=0;entryDy=0;exitX=0.5;exitY=0;exitDx=0;exitDy=0;" edge="1" parent="1" source="yhsSbdnPkUWRsLbV-Y3A-53" target="yhsSbdnPkUWRsLbV-Y3A-52">
          <mxGeometry width="50" height="50" relative="1" as="geometry">
            <mxPoint x="400" y="440" as="sourcePoint" />
            <mxPoint x="450" y="390" as="targetPoint" />
          </mxGeometry>
        </mxCell>
        <mxCell id="yhsSbdnPkUWRsLbV-Y3A-56" value="ID_Produto" style="ellipse;whiteSpace=wrap;html=1;fillColor=#d5e8d4;strokeColor=#82b366;" vertex="1" parent="1">
          <mxGeometry x="550" y="620" width="80" height="40" as="geometry" />
        </mxCell>
        <mxCell id="yhsSbdnPkUWRsLbV-Y3A-57" value="" style="endArrow=none;html=1;rounded=0;entryX=0.25;entryY=1;entryDx=0;entryDy=0;exitX=0.5;exitY=0;exitDx=0;exitDy=0;fillColor=#d5e8d4;strokeColor=#82b366;" edge="1" parent="1" source="yhsSbdnPkUWRsLbV-Y3A-56">
          <mxGeometry width="50" height="50" relative="1" as="geometry">
            <mxPoint x="650" y="605" as="sourcePoint" />
            <mxPoint x="605.625" y="585" as="targetPoint" />
          </mxGeometry>
        </mxCell>
        <mxCell id="yhsSbdnPkUWRsLbV-Y3A-58" value="ID_Encomenda" style="ellipse;whiteSpace=wrap;html=1;fillColor=#d5e8d4;strokeColor=#82b366;" vertex="1" parent="1">
          <mxGeometry x="630" y="630" width="98.75" height="40" as="geometry" />
        </mxCell>
        <mxCell id="yhsSbdnPkUWRsLbV-Y3A-59" value="" style="endArrow=none;html=1;rounded=0;entryX=0.442;entryY=0.983;entryDx=0;entryDy=0;exitX=0.5;exitY=0;exitDx=0;exitDy=0;fillColor=#d5e8d4;strokeColor=#82b366;entryPerimeter=0;" edge="1" parent="1" source="yhsSbdnPkUWRsLbV-Y3A-58" target="yhsSbdnPkUWRsLbV-Y3A-53">
          <mxGeometry width="50" height="50" relative="1" as="geometry">
            <mxPoint x="620" y="705" as="sourcePoint" />
            <mxPoint x="635.625" y="670" as="targetPoint" />
          </mxGeometry>
        </mxCell>
        <mxCell id="yhsSbdnPkUWRsLbV-Y3A-60" value="quantidade" style="ellipse;whiteSpace=wrap;html=1;" vertex="1" parent="1">
          <mxGeometry x="740" y="610" width="80" height="40" as="geometry" />
        </mxCell>
        <mxCell id="yhsSbdnPkUWRsLbV-Y3A-61" value="" style="endArrow=none;html=1;rounded=0;exitX=0.253;exitY=0.15;exitDx=0;exitDy=0;entryX=0.75;entryY=1;entryDx=0;entryDy=0;exitPerimeter=0;" edge="1" parent="1" source="yhsSbdnPkUWRsLbV-Y3A-60" target="yhsSbdnPkUWRsLbV-Y3A-53">
          <mxGeometry width="50" height="50" relative="1" as="geometry">
            <mxPoint x="748" y="602" as="sourcePoint" />
            <mxPoint x="690" y="600" as="targetPoint" />
          </mxGeometry>
        </mxCell>
      </root>
    </mxGraphModel>
  </diagram>
</mxfile>
